<?xml version="1.0" encoding="utf-8"?>
<!-- Generator: Adobe Illustrator 25.0.0, SVG Export Plug-In . SVG Version: 6.00 Build 0)  -->
<svg version="1.1" xmlns="http://www.w3.org/2000/svg" xmlns:xlink="http://www.w3.org/1999/xlink" x="0px" y="0px"
	 viewBox="0 0 750 500" style="enable-background:new 0 0 750 500;" xml:space="preserve">
<style type="text/css">
	.st0{fill:#FFFFFF;}
	.st1{fill:none;stroke:#011635;stroke-width:1.5;stroke-linecap:round;stroke-linejoin:round;stroke-miterlimit:10;}
	.st2{fill:none;stroke:#011635;stroke-width:3;stroke-linecap:round;stroke-linejoin:round;stroke-miterlimit:10;}
	.st3{fill:#8791FF;}
	.st4{fill:#F9CAD2;}
	.st5{fill:#00CFBE;}
	.st6{fill:#011635;stroke:#011635;stroke-width:1.5;stroke-linecap:round;stroke-linejoin:round;stroke-miterlimit:10;}
	.st7{fill:#FFFFFF;stroke:#011635;stroke-width:1.5;stroke-linecap:round;stroke-linejoin:round;stroke-miterlimit:10;}
	.st8{fill:#F4DC90;stroke:#011635;stroke-width:1.5;stroke-linecap:round;stroke-linejoin:round;stroke-miterlimit:10;}
	.st9{fill:#D0D0D6;stroke:#011635;stroke-width:1.5;stroke-linecap:round;stroke-linejoin:round;stroke-miterlimit:10;}
	.st10{fill:#F99AAA;}
	.st11{opacity:0.45;}
	.st12{fill:none;stroke:#8791FF;stroke-width:1.5;stroke-linecap:round;stroke-linejoin:round;stroke-miterlimit:10;}
	.st13{fill:none;}
	.st14{fill:#011635;}
	.st15{font-family:'D-DIN-Bold';}
	.st16{font-size:36px;}
	.st17{font-size:18px;}
</style>
<g id="BACKGROUND">
	<rect class="st0" width="750" height="500"/>
</g>
<g id="OBJECTS">
	<g>
		<line class="st1" x1="330.8" y1="92.3" x2="316.7" y2="90.3"/>
		<line class="st1" x1="660.1" y1="461.1" x2="671.3" y2="470"/>
		<line class="st1" x1="443.1" y1="18" x2="449.3" y2="30.8"/>
		<line class="st1" x1="36.8" y1="259.3" x2="48" y2="268.2"/>
		<line class="st1" x1="679.9" y1="285.5" x2="693.3" y2="280.7"/>
		<line class="st1" x1="505.7" y1="462.4" x2="508.9" y2="476.3"/>
		<line class="st1" x1="115.7" y1="436.3" x2="109.4" y2="449.1"/>
		<line class="st1" x1="696.4" y1="97.2" x2="690.1" y2="110"/>
		<path class="st1" d="M97.1,196.2c0-1.7-1.4-3.2-3.2-3.2c-1.7,0-3.2,1.4-3.2,3.2c0,1.7,1.4,3.2,3.2,3.2
			C95.7,199.4,97.1,198,97.1,196.2z"/>
		<path class="st1" d="M733.2,168.8c0-1.7-1.4-3.2-3.2-3.2s-3.2,1.4-3.2,3.2c0,1.7,1.4,3.2,3.2,3.2S733.2,170.6,733.2,168.8z"/>
		<path class="st1" d="M139.6,44.3c0-1.7-1.4-3.2-3.2-3.2s-3.2,1.4-3.2,3.2c0,1.7,1.4,3.2,3.2,3.2S139.6,46,139.6,44.3z"/>
		<path class="st1" d="M45.5,395.2c0-1.7-1.4-3.2-3.2-3.2c-1.7,0-3.2,1.4-3.2,3.2c0,1.7,1.4,3.2,3.2,3.2
			C44.1,398.3,45.5,396.9,45.5,395.2z"/>
		<path class="st1" d="M638.9,37.9c0-1.7-1.4-3.2-3.2-3.2c-1.7,0-3.2,1.4-3.2,3.2c0,1.7,1.4,3.2,3.2,3.2
			C637.5,41.1,638.9,39.7,638.9,37.9z"/>
		<path class="st1" d="M372.3,47.4c0-1.7-1.4-3.2-3.2-3.2c-1.7,0-3.2,1.4-3.2,3.2c0,1.7,1.4,3.2,3.2,3.2
			C370.8,50.6,372.3,49.2,372.3,47.4z"/>
		<path class="st1" d="M173.1,472.5c0-1.7-1.4-3.2-3.2-3.2c-1.7,0-3.2,1.4-3.2,3.2c0,1.7,1.4,3.2,3.2,3.2
			C171.6,475.7,173.1,474.3,173.1,472.5z"/>
		<path class="st1" d="M699.6,371.5c0-1.7-1.4-3.2-3.2-3.2c-1.7,0-3.2,1.4-3.2,3.2c0,1.7,1.4,3.2,3.2,3.2
			C698.2,374.7,699.6,373.2,699.6,371.5z"/>
		<line class="st2" x1="709.5" y1="430.1" x2="709.5" y2="430.1"/>
		<line class="st2" x1="48" y1="168.8" x2="48" y2="168.8"/>
		<line class="st2" x1="554.6" y1="37.9" x2="554.6" y2="37.9"/>
		<line class="st2" x1="28.2" y1="465.6" x2="28.2" y2="465.6"/>
		<line class="st2" x1="255.6" y1="34.8" x2="255.6" y2="34.8"/>
		<line class="st2" x1="718.2" y1="37.9" x2="718.2" y2="37.9"/>
		<line class="st2" x1="384.3" y1="480.6" x2="384.3" y2="480.6"/>
		<line class="st1" x1="60.9" y1="35.2" x2="53" y2="47"/>
	</g>
	<g>
		<path class="st3" d="M165.1,441.6c123.1,59.6,328.6,15.8,405-44.8c99.3-78.7,123.3-263.4,20.3-325.8
			c-58.6-35.5-153.4-27.2-229.5,76c-70.7,95.8-122,49.4-201.7,77.5C58.3,260.1,59.9,390.7,165.1,441.6z"/>
		<path class="st0" d="M219.2,139.6h347.6c6.6,0,12,5.4,12,12v230.7c0,6.6-5.4,12-12,12H219.2c-6.6,0-12-5.4-12-12V151.6
			C207.2,145,212.6,139.6,219.2,139.6z"/>
	</g>
	<g>
		<g>
			<g>
				<path class="st4" d="M520.5,132c-1.3-12.5,4.7-29.8,13.5-28.3s-2.2,15.2,5.1,29.2L520.5,132z"/>
				<g>
					<path class="st5" d="M523,139.6c0,0,14.2-14.1,21.6-39.1c7.4-25.1,40.1-25.8,46.2,5.8c6.1,31.6-22.4,76.1-22.4,76.1L523,139.6z
						"/>
					<path class="st1" d="M570.2,107.9c0,0,1.8,30.1-25,52.7"/>
				</g>
				<path class="st1" d="M611.2,115.5c0,0,4.7,16.4-7.5,28.8"/>
			</g>
			<g>
				<path class="st1" d="M220.4,379.2c0,0,3.1,14.8-4.8,27.9"/>
				<path class="st1" d="M205.2,379.2c0,0-0.4,11.9-6.5,22"/>
			</g>
			<g>
				<g>
					<path class="st5" d="M353,389c19.2,24.6,38.7,23.8,62.2,23.7c23.5-0.1,50.1,6.5,61.9,21.6c11.8,15.1,47.5,19.3,45.8-17
						c-1.6-36.3-54.2-68.8-96.5-67.4c-42.4,1.4-70.8-5-70.8-5L353,389z"/>
					<path class="st1" d="M354.3,365.3c65.9,34,111.9,11.7,140.1,47.4"/>
				</g>
				<path class="st1" d="M539.2,416.9c0,0,10.6,7.3,10.2,25.9"/>
			</g>
			<g>
				<path class="st4" d="M223.4,135c-8.3-17.1-6.2-44,5.5-43.7c11.8,0.3,0.2,28.9,15.7,41.2L223.4,135z"/>
				<g>
					<path class="st5" d="M181.9,168.8c0,0-46.3-84.1-2-97.2c37.2-11,29.4,62.2,69.7,78.4L181.9,168.8z"/>
					<path class="st1" d="M183.9,93.8c0,0,5.3,37.5,29.6,66.3"/>
				</g>
				<path class="st1" d="M157,263.8c0,0,22.4,6.3,41.7,2.6"/>
				<path class="st1" d="M147.5,144.9c0,0,13.1,5.4,19.4,18.8"/>
				<path class="st1" d="M267.3,106.1c0,0-6,10.5,0,28.6"/>
			</g>
		</g>
		<g>
			<g>
				<g>
					<path class="st6" d="M206,128.6h347.6c6.6,0,12,5.4,12,12v230.7c0,6.6-5.4,12-12,12H206c-6.6,0-12-5.4-12-12V140.6
						C194,134,199.4,128.6,206,128.6z"/>
					<path class="st7" d="M198.2,128.6h347.6c6.6,0,12,5.4,12,12v230.7c0,6.6-5.4,12-12,12H198.2c-6.6,0-12-5.4-12-12V140.6
						C186.2,134,191.6,128.6,198.2,128.6z"/>
					<path class="st8" d="M198.2,383.4h347.6c6.6,0,12-5.4,12-12v-12.2H186.2v12.2C186.2,378,191.6,383.4,198.2,383.4z"/>
					<path class="st9" d="M377.9,371.3c0-3.3-2.6-5.9-5.9-5.9c-3.3,0-5.9,2.6-5.9,5.9c0,3.3,2.6,5.9,5.9,5.9
						C375.3,377.2,377.9,374.5,377.9,371.3z"/>
					<path class="st8" d="M545.8,128.6H198.2c-6.6,0-12,5.4-12,12h371.6C557.8,134,552.4,128.6,545.8,128.6z"/>
				</g>
				<g>
					<g>
						<rect x="210.9" y="160.6" class="st4" width="134.4" height="91.3"/>
						<rect x="210.9" y="248.6" class="st10" width="134.4" height="3.3"/>
					</g>
					<g>
						<rect x="217.3" y="167" class="st1" width="6.2" height="6.2"/>
						<line class="st1" x1="235.8" y1="173.1" x2="229.6" y2="173.1"/>
					</g>
					<g>
						<g>
							<polyline class="st1" points="233.8,226 251.8,191 269.5,217.6 290.4,196.6 303.8,212.3 325,222.5 							"/>
							<path class="st7" d="M236,226c0-1.2-1-2.2-2.2-2.2c-1.2,0-2.2,1-2.2,2.2c0,1.2,1,2.2,2.2,2.2C235,228.2,236,227.3,236,226z"
								/>
							<path class="st7" d="M292.6,196.6c0-1.2-1-2.2-2.2-2.2c-1.2,0-2.2,1-2.2,2.2c0,1.2,1,2.2,2.2,2.2
								C291.6,198.8,292.6,197.8,292.6,196.6z"/>
							<circle class="st7" cx="269.5" cy="217.6" r="2.2"/>
							<path class="st7" d="M306,212.3c0-1.2-1-2.2-2.2-2.2c-1.2,0-2.2,1-2.2,2.2c0,1.2,1,2.2,2.2,2.2
								C305,214.5,306,213.5,306,212.3z"/>
							<path class="st7" d="M254.1,191c0-1.2-1-2.2-2.2-2.2c-1.2,0-2.2,1-2.2,2.2s1,2.2,2.2,2.2C253.1,193.2,254.1,192.2,254.1,191z
								"/>
							<path class="st7" d="M327.2,222.5c0-1.2-1-2.2-2.2-2.2c-1.2,0-2.2,1-2.2,2.2c0,1.2,1,2.2,2.2,2.2
								C326.2,224.7,327.2,223.7,327.2,222.5z"/>
						</g>
						<line class="st1" x1="233.8" y1="237.2" x2="325" y2="237.2"/>
					</g>
					<g>
						<rect x="303.6" y="167" class="st0" width="35" height="6.2"/>
						<rect x="320.7" y="176.1" class="st3" width="17.9" height="6.2"/>
					</g>
				</g>
				<g>
					<g>
						<rect x="210.9" y="260.1" class="st4" width="134.4" height="79"/>
						<rect x="210.9" y="335.9" class="st10" width="134.4" height="3.3"/>
					</g>
					<g>
						<rect x="217.3" y="266.4" class="st1" width="6.2" height="6.2"/>
						<line class="st1" x1="235.8" y1="272.6" x2="229.6" y2="272.6"/>
					</g>
					<g>
						<rect x="223.4" y="280.9" class="st3" width="115.1" height="4.4"/>
						<rect x="223.4" y="291.3" class="st0" width="115.1" height="4.4"/>
						<rect x="223.4" y="301.8" class="st0" width="71.3" height="4.4"/>
						<rect x="223.4" y="312.3" class="st3" width="51.6" height="4.4"/>
						<rect x="280.6" y="312.3" class="st3" width="29" height="4.4"/>
						<rect x="223.4" y="322.7" class="st0" width="31.4" height="4.4"/>
					</g>
				</g>
				<g>
					<g>
						<rect x="359.5" y="160.6" class="st4" width="173.5" height="22.6"/>
						<rect x="359.5" y="183.2" class="st10" width="173.5" height="3.3"/>
					</g>
					<g>
						<line class="st1" x1="365.9" y1="167" x2="372" y2="167"/>
						<line class="st1" x1="378.2" y1="167" x2="384.3" y2="167"/>
						<rect x="365.9" y="164.6" class="st1" width="6.2" height="2.4"/>
					</g>
					<g>
						<rect x="372" y="172.4" class="st3" width="61.6" height="4.4"/>
						<rect x="437.4" y="172.4" class="st0" width="25.9" height="4.4"/>
					</g>
				</g>
				<g>
					<g>
						<rect x="359.5" y="191.1" class="st4" width="173.5" height="22.6"/>
						<rect x="359.5" y="213.7" class="st10" width="173.5" height="3.3"/>
					</g>
					<g>
						<line class="st1" x1="365.9" y1="197.4" x2="372" y2="197.4"/>
						<line class="st1" x1="378.2" y1="197.4" x2="384.3" y2="197.4"/>
						<rect x="365.9" y="195" class="st1" width="6.2" height="2.4"/>
					</g>
					<g>
						<rect x="372" y="202.8" class="st3" width="28.2" height="4.4"/>
						<rect x="434.7" y="202.8" class="st3" width="82.3" height="4.4"/>
						<rect x="404.9" y="202.8" class="st0" width="25.9" height="4.4"/>
					</g>
				</g>
				<g>
					<g>
						<rect x="359.5" y="221.5" class="st4" width="173.5" height="22.6"/>
						<rect x="359.5" y="244.1" class="st10" width="173.5" height="3.3"/>
					</g>
					<g>
						<line class="st1" x1="365.9" y1="227.9" x2="372" y2="227.9"/>
						<line class="st1" x1="378.2" y1="227.9" x2="384.3" y2="227.9"/>
						<rect x="365.9" y="225.5" class="st1" width="6.2" height="2.4"/>
					</g>
					<rect x="372" y="233.3" class="st3" width="61.6" height="4.4"/>
				</g>
				<g>
					<g>
						<rect x="359.5" y="252" class="st4" width="173.5" height="22.6"/>
						<rect x="359.5" y="274.6" class="st10" width="173.5" height="3.3"/>
					</g>
					<g>
						<line class="st1" x1="365.9" y1="258.3" x2="372" y2="258.3"/>
						<line class="st1" x1="378.2" y1="258.3" x2="384.3" y2="258.3"/>
						<rect x="365.9" y="255.9" class="st1" width="6.2" height="2.4"/>
					</g>
					<g>
						<rect x="372" y="263.7" class="st3" width="43.2" height="4.4"/>
						<rect x="420.2" y="263.7" class="st0" width="72.7" height="4.4"/>
						<rect x="498.4" y="263.7" class="st0" width="12" height="4.4"/>
					</g>
				</g>
				<g>
					<g>
						<rect x="359.5" y="287.5" class="st4" width="173.5" height="51.6"/>
						<rect x="359.5" y="335.9" class="st10" width="173.5" height="3.3"/>
					</g>
					<g>
						<rect x="365.9" y="293.8" class="st1" width="6.2" height="6.2"/>
						<line class="st1" x1="384.3" y1="300" x2="378.2" y2="300"/>
					</g>
					<g>
						<rect x="392.4" y="300.9" class="st3" width="24.9" height="24.9"/>
						<g>
							<line class="st1" x1="398.7" y1="319.5" x2="411.1" y2="307.2"/>
							<line class="st1" x1="411.1" y1="319.5" x2="398.7" y2="307.2"/>
						</g>
					</g>
					<g>
						<rect x="426.4" y="300.9" class="st3" width="24.9" height="24.9"/>
						<g>
							<line class="st1" x1="432.7" y1="319.5" x2="445.1" y2="307.2"/>
						</g>
					</g>
					<g>
						<rect x="460.5" y="300.9" class="st3" width="24.9" height="24.9"/>
						<rect x="467.9" y="307.7" class="st1" width="11.2" height="11.2"/>
					</g>
					<g>
						<rect x="494.5" y="300.9" class="st3" width="24.9" height="24.9"/>
						<line class="st1" x1="501.3" y1="307.7" x2="501.3" y2="307.7"/>
						<line class="st1" x1="512.5" y1="307.7" x2="512.5" y2="307.7"/>
						<line class="st1" x1="501.3" y1="318.9" x2="501.3" y2="318.9"/>
						<line class="st1" x1="512.5" y1="318.9" x2="512.5" y2="318.9"/>
					</g>
				</g>
			</g>
			<g>
				<g>
					<g>
						<g class="st11">
							<path class="st3" d="M635.7,429.6H491.3c-4,0-7.2-3.2-7.2-7.2V278c0-4,3.2-7.2,7.2-7.2h144.4c4,0,7.2,3.2,7.2,7.2v144.4
								C642.9,426.4,639.7,429.6,635.7,429.6z"/>
							<path class="st12" d="M635.7,429.6H491.3c-4,0-7.2-3.2-7.2-7.2V278c0-4,3.2-7.2,7.2-7.2h144.4c4,0,7.2,3.2,7.2,7.2v144.4
								C642.9,426.4,639.7,429.6,635.7,429.6z"/>
						</g>
						<g>
							<path class="st0" d="M628.7,422.6H484.3c-4,0-7.2-3.2-7.2-7.2V271c0-4,3.2-7.2,7.2-7.2h144.4c4,0,7.2,3.2,7.2,7.2v144.4
								C635.9,419.4,632.7,422.6,628.7,422.6z"/>
							<path class="st1" d="M628.7,422.6H484.3c-4,0-7.2-3.2-7.2-7.2V271c0-4,3.2-7.2,7.2-7.2h144.4c4,0,7.2,3.2,7.2,7.2v144.4
								C635.9,419.4,632.7,422.6,628.7,422.6z"/>
						</g>
					</g>
					<g>
						<line class="st1" x1="486.4" y1="278.2" x2="492.1" y2="272.5"/>
						<line class="st1" x1="486.4" y1="272.5" x2="492.1" y2="278.2"/>
					</g>
					<g>
						<g>
							<g>
								<path class="st3" d="M508.1,317.1c-6.7,0-12.1,5.4-12.1,12.1v2.9h24.1v-2.9C520.1,322.5,514.7,317.1,508.1,317.1z"/>
								<path class="st3" d="M514.9,307.8c0-3.8-3.1-6.9-6.9-6.9c-3.8,0-6.9,3.1-6.9,6.9s3.1,6.9,6.9,6.9
									C511.8,314.7,514.9,311.6,514.9,307.8z"/>
							</g>
							<rect x="492.1" y="289.7" class="st1" width="31.8" height="42.4"/>
						</g>
						<g>
							
								<rect x="531.9" y="316.8" transform="matrix(-1 -1.224647e-16 1.224647e-16 -1 1098.7762 639.8226)" class="st3" width="35" height="6.2"/>
							
								<rect x="531.9" y="325.9" transform="matrix(-1 -1.224647e-16 1.224647e-16 -1 1081.6167 658.0204)" class="st3" width="17.9" height="6.2"/>
						</g>
						<path class="st1" d="M620.9,328.3c0-2.1-1.7-3.8-3.8-3.8c-2.1,0-3.8,1.7-3.8,3.8c0,2.1,1.7,3.8,3.8,3.8
							C619.2,332.1,620.9,330.4,620.9,328.3z"/>
					</g>
					<g>
						<rect x="492.1" y="342" class="st4" width="128.8" height="25.3"/>
						<g>
							<rect x="499" y="347.7" class="st3" width="115.1" height="4.4"/>
							<rect x="499" y="358.2" class="st0" width="43.5" height="4.4"/>
						</g>
					</g>
					<g>
						<rect x="492.1" y="377.1" class="st4" width="128.8" height="25.3"/>
						<g>
							<rect x="499" y="382.9" class="st3" width="52.7" height="4.4"/>
							<rect x="555.5" y="382.9" class="st0" width="58.6" height="4.4"/>
							<rect x="523" y="393.3" class="st0" width="42.1" height="4.4"/>
							<rect x="499" y="393.3" class="st0" width="20.1" height="4.4"/>
						</g>
					</g>
				</g>
				<g>
					<path class="st1" d="M482.9,347.8c-15.3,0-14.5-12.8-31.4-12.8l0,0c-4.6,0-8.3-3.7-8.3-8.3v-3.3"/>
					<path class="st6" d="M488.5,347.8L488.5,347.8c0-1.6-1.3-2.8-2.8-2.8l0,0c-1.6,0-2.8,1.3-2.8,2.8l0,0c0,1.6,1.3,2.8,2.8,2.8
						l0,0C487.3,350.6,488.5,349.3,488.5,347.8z"/>
					<path class="st6" d="M446,320.5L446,320.5c0-1.6-1.3-2.8-2.8-2.8l0,0c-1.6,0-2.8,1.3-2.8,2.8l0,0c0,1.6,1.3,2.8,2.8,2.8l0,0
						C444.8,323.4,446,322.1,446,320.5z"/>
				</g>
			</g>
			<g>
				<g>
					<g>
						<g class="st11">
							<path class="st3" d="M656.9,253.5h-96.5c-4,0-7.2-3.2-7.2-7.2v-96.5c0-4,3.2-7.2,7.2-7.2h96.5c4,0,7.2,3.2,7.2,7.2v96.5
								C664.1,250.3,660.9,253.5,656.9,253.5z"/>
							<path class="st12" d="M656.9,253.5h-96.5c-4,0-7.2-3.2-7.2-7.2v-96.5c0-4,3.2-7.2,7.2-7.2h96.5c4,0,7.2,3.2,7.2,7.2v96.5
								C664.1,250.3,660.9,253.5,656.9,253.5z"/>
						</g>
						<g>
							<path class="st0" d="M649.9,246.5h-96.5c-4,0-7.2-3.2-7.2-7.2v-96.5c0-4,3.2-7.2,7.2-7.2h96.5c4,0,7.2,3.2,7.2,7.2v96.5
								C657.1,243.3,653.9,246.5,649.9,246.5z"/>
							<path class="st1" d="M649.9,246.5h-96.5c-4,0-7.2-3.2-7.2-7.2v-96.5c0-4,3.2-7.2,7.2-7.2h96.5c4,0,7.2,3.2,7.2,7.2v96.5
								C657.1,243.3,653.9,246.5,649.9,246.5z"/>
						</g>
					</g>
					<g>
						<line class="st1" x1="555.5" y1="149.9" x2="561.2" y2="144.3"/>
						<line class="st1" x1="555.5" y1="144.3" x2="561.2" y2="149.9"/>
					</g>
					<rect x="557.2" y="176.2" class="st13" width="88.8" height="34"/>
				</g>
				<g>
					<path class="st1" d="M522.3,166.7c16.9,0,16.1,12.8,31.4,12.8"/>
					<path class="st6" d="M559.4,179.6L559.4,179.6c0-1.6-1.3-2.8-2.8-2.8l0,0c-1.6,0-2.8,1.3-2.8,2.8l0,0c0,1.6,1.3,2.8,2.8,2.8
						l0,0C558.1,182.4,559.4,181.1,559.4,179.6z"/>
					<path class="st6" d="M522.3,166.7L522.3,166.7c0-1.6-1.3-2.8-2.8-2.8l0,0c-1.6,0-2.8,1.3-2.8,2.8l0,0c0,1.6,1.3,2.8,2.8,2.8
						l0,0C521,169.6,522.3,168.3,522.3,166.7z"/>
				</g>
				<g>
					<path class="st6" d="M559.4,197.2L559.4,197.2c0-1.6-1.3-2.8-2.8-2.8l0,0c-1.6,0-2.8,1.3-2.8,2.8l0,0c0,1.6,1.3,2.8,2.8,2.8
						l0,0C558.1,200,559.4,198.7,559.4,197.2z"/>
					<path class="st6" d="M522.3,197.2L522.3,197.2c0-1.6-1.3-2.8-2.8-2.8l0,0c-1.6,0-2.8,1.3-2.8,2.8l0,0c0,1.6,1.3,2.8,2.8,2.8
						l0,0C521,200,522.3,198.7,522.3,197.2z"/>
					<line class="st1" x1="522.3" y1="197.2" x2="553.7" y2="197.2"/>
				</g>
				<g>
					<path class="st1" d="M522.3,227.6c16.9,0,16.1-12.8,31.4-12.8"/>
					<path class="st6" d="M559.4,214.8L559.4,214.8c0,1.6-1.3,2.8-2.8,2.8l0,0c-1.6,0-2.8-1.3-2.8-2.8l0,0c0-1.6,1.3-2.8,2.8-2.8
						l0,0C558.1,211.9,559.4,213.2,559.4,214.8z"/>
					<path class="st6" d="M522.3,227.6L522.3,227.6c0,1.6-1.3,2.8-2.8,2.8l0,0c-1.6,0-2.8-1.3-2.8-2.8l0,0c0-1.6,1.3-2.8,2.8-2.8
						l0,0C521,224.8,522.3,226.1,522.3,227.6z"/>
				</g>
			</g>
			<g>
				<g>
					<g>
						<g>
							<g class="st11">
								<path class="st3" d="M359.8,443H248.2c-4,0-7.2-3.2-7.2-7.2v-53.9c0-4,3.2-7.2,7.2-7.2h111.6c4,0,7.2,3.2,7.2,7.2v53.9
									C367,439.8,363.8,443,359.8,443z"/>
								<path class="st12" d="M359.8,443H248.2c-4,0-7.2-3.2-7.2-7.2v-53.9c0-4,3.2-7.2,7.2-7.2h111.6c4,0,7.2,3.2,7.2,7.2v53.9
									C367,439.8,363.8,443,359.8,443z"/>
							</g>
							<g>
								<path class="st0" d="M352.8,436H241.2c-4,0-7.2-3.2-7.2-7.2v-53.9c0-4,3.2-7.2,7.2-7.2h111.6c4,0,7.2,3.2,7.2,7.2v53.9
									C360,432.8,356.8,436,352.8,436z"/>
								<path class="st1" d="M352.8,436H241.2c-4,0-7.2-3.2-7.2-7.2v-53.9c0-4,3.2-7.2,7.2-7.2h111.6c4,0,7.2,3.2,7.2,7.2v53.9
									C360,432.8,356.8,436,352.8,436z"/>
							</g>
						</g>
						<g>
							<line class="st1" x1="243.4" y1="382.1" x2="249.1" y2="376.4"/>
							<line class="st1" x1="243.4" y1="376.4" x2="249.1" y2="382.1"/>
						</g>
						<rect x="252.6" y="385.9" class="st13" width="88.8" height="34"/>
					</g>
					<g>
						<path class="st1" d="M297.4,371.5c0-15.3-12.8-14.5-12.8-31.4l0,0c0-4.6-3.7-8.3-8.3-8.3H273"/>
						<path class="st6" d="M297.4,377.2L297.4,377.2c-1.6,0-2.8-1.3-2.8-2.8v0c0-1.6,1.3-2.8,2.8-2.8h0c1.6,0,2.8,1.3,2.8,2.8v0
							C300.2,375.9,298.9,377.2,297.4,377.2z"/>
						<path class="st6" d="M270.2,334.7L270.2,334.7c-1.6,0-2.8-1.3-2.8-2.8l0,0c0-1.6,1.3-2.8,2.8-2.8l0,0c1.6,0,2.8,1.3,2.8,2.8
							l0,0C273,333.4,271.7,334.7,270.2,334.7z"/>
					</g>
				</g>
				<g>
					<g>
						<g>
							<g class="st11">
								<path class="st3" d="M453.9,454.7h-59c-4,0-7.2-3.2-7.2-7.2v-32c0-4,3.2-7.2,7.2-7.2h59c4,0,7.2,3.2,7.2,7.2v32
									C461.1,451.5,457.8,454.7,453.9,454.7z"/>
								<path class="st12" d="M453.9,454.7h-59c-4,0-7.2-3.2-7.2-7.2v-32c0-4,3.2-7.2,7.2-7.2h59c4,0,7.2,3.2,7.2,7.2v32
									C461.1,451.5,457.8,454.7,453.9,454.7z"/>
							</g>
							<g>
								<path class="st0" d="M446.9,447.7h-59c-4,0-7.2-3.2-7.2-7.2v-32c0-4,3.2-7.2,7.2-7.2h59c4,0,7.2,3.2,7.2,7.2v32
									C454.1,444.5,450.8,447.7,446.9,447.7z"/>
								<path class="st1" d="M446.9,447.7h-59c-4,0-7.2-3.2-7.2-7.2v-32c0-4,3.2-7.2,7.2-7.2h59c4,0,7.2,3.2,7.2,7.2v32
									C454.1,444.5,450.8,447.7,446.9,447.7z"/>
							</g>
						</g>
						<g>
							<line class="st1" x1="390" y1="415.6" x2="395.6" y2="409.9"/>
							<line class="st1" x1="390" y1="409.9" x2="395.6" y2="415.6"/>
						</g>
						<g>
							<path class="st6" d="M407.5,434.3c0-1.5-1.2-2.7-2.7-2.7s-2.7,1.2-2.7,2.7c0,1.5,1.2,2.7,2.7,2.7S407.5,435.8,407.5,434.3z"
								/>
							<path class="st6" d="M435.3,414.6c0-1.5-1.2-2.7-2.7-2.7c-1.5,0-2.7,1.2-2.7,2.7s1.2,2.7,2.7,2.7
								C434.1,417.3,435.3,416.1,435.3,414.6z"/>
							<path class="st1" d="M404.8,434.3c0,0,23.2,6.1,27.8-19.7"/>
						</g>
					</g>
					<g>
						<path class="st1" d="M353,414.5c16.9,0,16.1,12.8,31.4,12.8"/>
						<path class="st6" d="M390.1,427.3L390.1,427.3c0-1.6-1.3-2.8-2.8-2.8l0,0c-1.6,0-2.8,1.3-2.8,2.8l0,0c0,1.6,1.3,2.8,2.8,2.8
							l0,0C388.8,430.1,390.1,428.9,390.1,427.3z"/>
						<path class="st6" d="M353,414.5L353,414.5c0-1.6-1.3-2.8-2.8-2.8l0,0c-1.6,0-2.8,1.3-2.8,2.8l0,0c0,1.6,1.3,2.8,2.8,2.8l0,0
							C351.7,417.3,353,416,353,414.5z"/>
					</g>
				</g>
			</g>
			<g>
				<g>
					<g>
						<g class="st11">
							<path class="st3" d="M198.8,395.6h-54.3c-4.2,0-7.7-3.4-7.7-7.7v-96.4c0-4.2,3.4-7.7,7.7-7.7h54.3c4.2,0,7.7,3.4,7.7,7.7
								v96.4C206.5,392.2,203,395.6,198.8,395.6z"/>
							<path class="st12" d="M198.8,395.6h-54.3c-4.2,0-7.7-3.4-7.7-7.7v-96.4c0-4.2,3.4-7.7,7.7-7.7h54.3c4.2,0,7.7,3.4,7.7,7.7
								v96.4C206.5,392.2,203,395.6,198.8,395.6z"/>
						</g>
						<g>
							<path class="st0" d="M191.8,388.6h-54.3c-4.2,0-7.7-3.4-7.7-7.7v-96.4c0-4.2,3.4-7.7,7.7-7.7h54.3c4.2,0,7.7,3.4,7.7,7.7
								v96.4C199.5,385.2,196,388.6,191.8,388.6z"/>
							<path class="st1" d="M191.8,388.6h-54.3c-4.2,0-7.7-3.4-7.7-7.7v-96.4c0-4.2,3.4-7.7,7.7-7.7h54.3c4.2,0,7.7,3.4,7.7,7.7
								v96.4C199.5,385.2,196,388.6,191.8,388.6z"/>
						</g>
					</g>
					<g>
						<line class="st1" x1="139.2" y1="291.2" x2="144.9" y2="285.5"/>
						<line class="st1" x1="139.2" y1="285.5" x2="144.9" y2="291.2"/>
					</g>
					<g>
						<path class="st3" d="M188,318.7c0-0.2-0.1-0.4-0.2-0.5c-0.1-0.1-0.3-0.2-0.5-0.2c-14.4,0.9-21.8-12-21.9-12.2
							c-0.3-0.5-1-0.5-1.3,0c-0.1,0.1-7.5,13-21.9,12.2c-0.2,0-0.4,0.1-0.5,0.2c-0.1,0.1-0.2,0.3-0.2,0.5c0,0.3-1.3,34.4,23.2,38.2
							c0,0,0.1,0,0.1,0c0,0,0.1,0,0.1,0C189.3,353.1,188,319.1,188,318.7z"/>
					</g>
				</g>
				<g>
					<path class="st1" d="M223.3,292.6c-16.9,0-16.1,12.8-31.4,12.8"/>
					<path class="st6" d="M186.2,305.4L186.2,305.4c0-1.6,1.3-2.8,2.8-2.8l0,0c1.6,0,2.8,1.3,2.8,2.8l0,0c0,1.6-1.3,2.8-2.8,2.8l0,0
						C187.5,308.3,186.2,307,186.2,305.4z"/>
					<path class="st6" d="M223.3,292.6L223.3,292.6c0-1.6,1.3-2.8,2.8-2.8l0,0c1.6,0,2.8,1.3,2.8,2.8l0,0c0,1.6-1.3,2.8-2.8,2.8l0,0
						C224.6,295.4,223.3,294.1,223.3,292.6z"/>
				</g>
			</g>
			<g>
				<g>
					<g>
						<g class="st11">
							<path class="st3" d="M199.3,257.1h-55.2c-4,0-7.2-3.2-7.2-7.2v-80.6c0-4,3.2-7.2,7.2-7.2h55.2c4,0,7.2,3.2,7.2,7.2v80.6
								C206.5,253.9,203.3,257.1,199.3,257.1z"/>
							<path class="st12" d="M199.3,257.1h-55.2c-4,0-7.2-3.2-7.2-7.2v-80.6c0-4,3.2-7.2,7.2-7.2h55.2c4,0,7.2,3.2,7.2,7.2v80.6
								C206.5,253.9,203.3,257.1,199.3,257.1z"/>
						</g>
						<g>
							<path class="st0" d="M192.3,250.1h-55.2c-4,0-7.2-3.2-7.2-7.2v-80.6c0-4,3.2-7.2,7.2-7.2h55.2c4,0,7.2,3.2,7.2,7.2v80.6
								C199.5,246.9,196.3,250.1,192.3,250.1z"/>
							<path class="st1" d="M192.3,250.1h-55.2c-4,0-7.2-3.2-7.2-7.2v-80.6c0-4,3.2-7.2,7.2-7.2h55.2c4,0,7.2,3.2,7.2,7.2v80.6
								C199.5,246.9,196.3,250.1,192.3,250.1z"/>
						</g>
					</g>
					<g>
						<line class="st1" x1="139.2" y1="169.5" x2="144.9" y2="163.8"/>
						<line class="st1" x1="139.2" y1="163.8" x2="144.9" y2="169.5"/>
					</g>
					<g>
						<rect x="133.5" y="188.8" class="st13" width="62.4" height="31.5"/>
						<text transform="matrix(1 0 0 1 137.0475 214.358)" class="st14 st15 st16">&lt;/&gt;</text>
					</g>
				</g>
				<g>
					<path class="st1" d="M223.3,191.3c-16.9,0-16.1-12.8-31.4-12.8"/>
					<path class="st6" d="M186.2,178.4L186.2,178.4c0,1.6,1.3,2.8,2.8,2.8l0,0c1.6,0,2.8-1.3,2.8-2.8l0,0c0-1.6-1.3-2.8-2.8-2.8l0,0
						C187.5,175.6,186.2,176.9,186.2,178.4z"/>
					<path class="st6" d="M223.3,191.3L223.3,191.3c0,1.6,1.3,2.8,2.8,2.8l0,0c1.6,0,2.8-1.3,2.8-2.8l0,0c0-1.6-1.3-2.8-2.8-2.8l0,0
						C224.6,188.4,223.3,189.7,223.3,191.3z"/>
				</g>
			</g>
			<g>
				<g>
					<g>
						<g class="st11">
							<path class="st3" d="M312.4,177.3h-59c-4,0-7.2-3.2-7.2-7.2v-32c0-4,3.2-7.2,7.2-7.2h59c4,0,7.2,3.2,7.2,7.2v32
								C319.6,174.1,316.4,177.3,312.4,177.3z"/>
							<path class="st12" d="M312.4,177.3h-59c-4,0-7.2-3.2-7.2-7.2v-32c0-4,3.2-7.2,7.2-7.2h59c4,0,7.2,3.2,7.2,7.2v32
								C319.6,174.1,316.4,177.3,312.4,177.3z"/>
						</g>
						<g>
							<path class="st0" d="M305.4,170.3h-59c-4,0-7.2-3.2-7.2-7.2v-32c0-4,3.2-7.2,7.2-7.2h59c4,0,7.2,3.2,7.2,7.2v32
								C312.6,167.1,309.4,170.3,305.4,170.3z"/>
							<path class="st1" d="M305.4,170.3h-59c-4,0-7.2-3.2-7.2-7.2v-32c0-4,3.2-7.2,7.2-7.2h59c4,0,7.2,3.2,7.2,7.2v32
								C312.6,167.1,309.4,170.3,305.4,170.3z"/>
						</g>
					</g>
					<g>
						<line class="st1" x1="248.5" y1="138.2" x2="254.2" y2="132.5"/>
						<line class="st1" x1="248.5" y1="132.5" x2="254.2" y2="138.2"/>
					</g>
					<g>
						<rect x="250.3" y="140.6" class="st13" width="51.3" height="23.4"/>
						<text transform="matrix(1 0 0 1 251.4494 153.4061)" class="st14 st15 st17">REACT</text>
					</g>
				</g>
				<g>
					<g>
						<g class="st11">
							<path class="st3" d="M492.2,142.3H344c-4,0-7.2,3.2-7.2,7.2v6.3c0,4,3.2,7.2,7.2,7.2h148.2c4,0,7.2-3.2,7.2-7.2v-6.3
								C499.4,145.6,496.2,142.3,492.2,142.3z"/>
							<path class="st12" d="M492.2,142.3H344c-4,0-7.2,3.2-7.2,7.2v6.3c0,4,3.2,7.2,7.2,7.2h148.2c4,0,7.2-3.2,7.2-7.2v-6.3
								C499.4,145.6,496.2,142.3,492.2,142.3z"/>
						</g>
						<g>
							<path class="st0" d="M486.6,136.8H338.4c-4,0-7.2,3.2-7.2,7.2v6.3c0,4,3.2,7.2,7.2,7.2h148.2c4,0,7.2-3.2,7.2-7.2V144
								C493.8,140,490.6,136.8,486.6,136.8z"/>
							<path class="st1" d="M486.6,136.8H338.4c-4,0-7.2,3.2-7.2,7.2v6.3c0,4,3.2,7.2,7.2,7.2h148.2c4,0,7.2-3.2,7.2-7.2V144
								C493.8,140,490.6,136.8,486.6,136.8z"/>
						</g>
					</g>
					<g>
						<path class="st4" d="M481.8,143.7H374c-1.9,0-3.4,1.5-3.4,3.4l0,0c0,1.9,1.5,3.4,3.4,3.4h107.8c1.9,0,3.4-1.5,3.4-3.4l0,0
							C485.2,145.2,483.7,143.7,481.8,143.7z"/>
						<path class="st3" d="M460.8,143.7H374c-1.9,0-3.4,1.5-3.4,3.4c0,1.9,1.5,3.4,3.4,3.4h86.8V143.7z"/>
					</g>
					<rect x="355.5" y="144.3" class="st1" width="5.7" height="5.7"/>
				</g>
				<g>
					<g>
						<g class="st11">
							<path class="st3" d="M492.2,113.5H344c-4,0-7.2,3.2-7.2,7.2v6.3c0,4,3.2,7.2,7.2,7.2h148.2c4,0,7.2-3.2,7.2-7.2v-6.3
								C499.4,116.7,496.2,113.5,492.2,113.5z"/>
							<path class="st12" d="M492.2,113.5H344c-4,0-7.2,3.2-7.2,7.2v6.3c0,4,3.2,7.2,7.2,7.2h148.2c4,0,7.2-3.2,7.2-7.2v-6.3
								C499.4,116.7,496.2,113.5,492.2,113.5z"/>
						</g>
						<g>
							<path class="st0" d="M486.6,107.9H338.4c-4,0-7.2,3.2-7.2,7.2v6.3c0,4,3.2,7.2,7.2,7.2h148.2c4,0,7.2-3.2,7.2-7.2v-6.3
								C493.8,111.2,490.6,107.9,486.6,107.9z"/>
							<path class="st1" d="M486.6,107.9H338.4c-4,0-7.2,3.2-7.2,7.2v6.3c0,4,3.2,7.2,7.2,7.2h148.2c4,0,7.2-3.2,7.2-7.2v-6.3
								C493.8,111.2,490.6,107.9,486.6,107.9z"/>
						</g>
					</g>
					<g>
						<path class="st4" d="M481.8,114.9H374c-1.9,0-3.4,1.5-3.4,3.4l0,0c0,1.9,1.5,3.4,3.4,3.4h107.8c1.9,0,3.4-1.5,3.4-3.4l0,0
							C485.2,116.4,483.7,114.9,481.8,114.9z"/>
						<path class="st3" d="M398.2,114.9H374c-1.9,0-3.4,1.5-3.4,3.4c0,1.9,1.5,3.4,3.4,3.4h24.3V114.9z"/>
					</g>
					<rect x="355.5" y="115.5" class="st1" width="5.7" height="5.7"/>
				</g>
				<g>
					<g>
						<g class="st11">
							<path class="st3" d="M492.2,171.2H344c-4,0-7.2,3.2-7.2,7.2v6.3c0,4,3.2,7.2,7.2,7.2h148.2c4,0,7.2-3.2,7.2-7.2v-6.3
								C499.4,174.4,496.2,171.2,492.2,171.2z"/>
							<path class="st12" d="M492.2,171.2H344c-4,0-7.2,3.2-7.2,7.2v6.3c0,4,3.2,7.2,7.2,7.2h148.2c4,0,7.2-3.2,7.2-7.2v-6.3
								C499.4,174.4,496.2,171.2,492.2,171.2z"/>
						</g>
						<g>
							<path class="st0" d="M486.6,165.6H338.4c-4,0-7.2,3.2-7.2,7.2v6.3c0,4,3.2,7.2,7.2,7.2h148.2c4,0,7.2-3.2,7.2-7.2v-6.3
								C493.8,168.8,490.6,165.6,486.6,165.6z"/>
							<path class="st1" d="M486.6,165.6H338.4c-4,0-7.2,3.2-7.2,7.2v6.3c0,4,3.2,7.2,7.2,7.2h148.2c4,0,7.2-3.2,7.2-7.2v-6.3
								C493.8,168.8,490.6,165.6,486.6,165.6z"/>
						</g>
					</g>
					<g>
						<path class="st4" d="M481.8,172.5H374c-1.9,0-3.4,1.5-3.4,3.4l0,0c0,1.9,1.5,3.4,3.4,3.4h107.8c1.9,0,3.4-1.5,3.4-3.4l0,0
							C485.2,174.1,483.7,172.5,481.8,172.5z"/>
						<path class="st3" d="M477.7,172.5H374c-1.9,0-3.4,1.5-3.4,3.4c0,1.9,1.5,3.4,3.4,3.4h103.7V172.5z"/>
					</g>
					<rect x="355.5" y="173.1" class="st1" width="5.7" height="5.7"/>
				</g>
				<g>
					<path class="st1" d="M338,119.3c-16.9,0-16.1,12.8-31.4,12.8"/>
					<path class="st6" d="M300.9,132.2L300.9,132.2c0-1.6,1.3-2.8,2.8-2.8l0,0c1.6,0,2.8,1.3,2.8,2.8l0,0c0,1.6-1.3,2.8-2.8,2.8l0,0
						C302.2,135,300.9,133.7,300.9,132.2z"/>
					<path class="st6" d="M338,119.3L338,119.3c0-1.6,1.3-2.8,2.8-2.8l0,0c1.6,0,2.8,1.3,2.8,2.8l0,0c0,1.6-1.3,2.8-2.8,2.8l0,0
						C339.3,122.2,338,120.9,338,119.3z"/>
				</g>
				<g>
					<path class="st6" d="M300.9,147.8L300.9,147.8c0-1.6,1.3-2.8,2.8-2.8l0,0c1.6,0,2.8,1.3,2.8,2.8l0,0c0,1.6-1.3,2.8-2.8,2.8l0,0
						C302.2,150.6,300.9,149.4,300.9,147.8z"/>
					<path class="st6" d="M338,147.8L338,147.8c0-1.6,1.3-2.8,2.8-2.8l0,0c1.6,0,2.8,1.3,2.8,2.8l0,0c0,1.6-1.3,2.8-2.8,2.8l0,0
						C339.3,150.6,338,149.4,338,147.8z"/>
					<line class="st1" x1="338" y1="147.8" x2="306.6" y2="147.8"/>
				</g>
				<g>
					<path class="st1" d="M338,175.2c-16.9,0-16.1-12.8-31.4-12.8"/>
					<path class="st6" d="M300.9,162.4L300.9,162.4c0,1.6,1.3,2.8,2.8,2.8l0,0c1.6,0,2.8-1.3,2.8-2.8l0,0c0-1.6-1.3-2.8-2.8-2.8l0,0
						C302.2,159.6,300.9,160.8,300.9,162.4z"/>
					<path class="st6" d="M338,175.2L338,175.2c0,1.6,1.3,2.8,2.8,2.8l0,0c1.6,0,2.8-1.3,2.8-2.8l0,0c0-1.6-1.3-2.8-2.8-2.8l0,0
						C339.3,172.4,338,173.7,338,175.2z"/>
				</g>
			</g>
		</g>
	</g>
</g>
</svg>
