<?xml version="1.0" encoding="utf-8"?>
<!-- Generator: Adobe Illustrator 25.0.0, SVG Export Plug-In . SVG Version: 6.00 Build 0)  -->
<svg version="1.1" id="Capa_1" xmlns="http://www.w3.org/2000/svg" xmlns:xlink="http://www.w3.org/1999/xlink" x="0px" y="0px"
	 viewBox="0 0 507.5 411.5" style="enable-background:new 0 0 507.5 411.5;" xml:space="preserve">
<style type="text/css">
	.st0{fill:#F5825E;}
	.st1{fill:#E0C1A2;}
	.st2{fill:#2D419A;}
	.st3{fill:#ABDFF9;}
	.st4{fill:#00B1DE;}
	.st5{fill:#2C295B;}
	.st6{fill:none;stroke:#2D419A;stroke-miterlimit:10;}
	.st7{opacity:0.3;}
	.st8{fill:#FFD145;}
	.st9{fill:#FFFFFF;}
	.st10{fill:#0086CB;}
	.st11{fill:none;stroke:#2D419A;stroke-width:4;stroke-miterlimit:10;}
</style>
<rect class="st0" width="507.5" height="411.5"/>
<g>
	<path class="st1" d="M447.2,323c0,13.7-84.2,24.7-188.1,24.7c-103.9,0-188.1-11.1-188.1-24.7c0-13.7,84.2-24.7,188.1-24.7
		C363,298.2,447.2,309.3,447.2,323z"/>
	<g>
		<path class="st2" d="M110.1,313.6c0,0.6-0.5,1.1-1.1,1.1H67.3c-0.6,0-1.1-0.5-1.1-1.1l-2.1-50.5c0-0.6,0.5-1.1,1.1-1.1h46
			c0.6,0,1.1,0.5,1.1,1.1L110.1,313.6z"/>
		<path class="st3" d="M61.1,218.7c0,0-4.3,4.8-13-5.1c0,0,11.3-2.2,13.3,4.4L61.1,218.7z"/>
		<path class="st3" d="M61.6,218c0,0,6.4,0.1,5.1-13c0,0-9.3,6.8-5.8,12.8L61.6,218z"/>
		<path class="st4" d="M87.6,187.1c0,0-5.9,2.6-9.8-10c0,0,11.2,2.6,10.3,9.5L87.6,187.1z"/>
		<path class="st4" d="M88.7,186.3c0,0,5.8,2.7,10.1-9.7c0,0-11.3,2.3-10.5,9.2L88.7,186.3z"/>
		<path class="st4" d="M87.4,197.7c0,0-6.3,2.7-10.4-10.6c0,0,12,2.8,10.9,10.1L87.4,197.7z"/>
		<path class="st4" d="M88.6,196.8c0,0,6.2,2.9,10.7-10.4c0,0-12,2.5-11.2,9.8L88.6,196.8z"/>
		<path class="st4" d="M87.2,209.8c0,0-7,3-11.5-11.8c0,0,13.2,3.1,12.1,11.2L87.2,209.8z"/>
		<path class="st4" d="M88.5,208.8c0,0,6.9,3.2,11.8-11.5c0,0-13.3,2.7-12.4,10.9L88.5,208.8z"/>
		<path class="st4" d="M87.2,222.4c0,0-7,3-11.5-11.8c0,0,13.3,3.1,12.1,11.2L87.2,222.4z"/>
		<path class="st4" d="M88.5,221.5c0,0,6.9,3.2,11.8-11.5c0,0-13.3,2.7-12.4,10.9L88.5,221.5z"/>
		<path class="st4" d="M86.2,231.9c0,0-5,2.2-8.3-8.5c0,0,9.5,2.2,8.7,8.1L86.2,231.9z"/>
		<path class="st4" d="M87.1,231.5c0,0,4.6,2.9,9.5-7c0,0-9.8,0.7-9.9,6.6L87.1,231.5z"/>
		<path class="st4" d="M86.5,239.6c0,0,3.8,2.4,7.8-5.8c0,0-8,0.6-8.1,5.4L86.5,239.6z"/>
		<path class="st4" d="M86.3,239.6c0,0-3.8,2.4-7.8-5.8c0,0,8,0.6,8.1,5.4L86.3,239.6z"/>
		<path class="st3" d="M65.6,228.8c0,0-5,5.5-15-5.8c0,0,13-2.6,15.3,5.1L65.6,228.8z"/>
		<path class="st3" d="M66.1,228c0,0,7.4,0.1,5.9-15c0,0-10.7,7.8-6.7,14.7L66.1,228z"/>
		<path class="st3" d="M69.6,239.7c0,0-5.6,6.1-16.8-6.5c0,0,14.6-2.9,17.1,5.7L69.6,239.7z"/>
		<path class="st3" d="M70.2,238.8c0,0,8.3,0.1,6.6-16.7c0,0-12,8.7-7.5,16.4L70.2,238.8z"/>
		<path class="st3" d="M73.1,252.3c0,0-6,5.7-16.2-7.8c0,0,14.7-1.7,16.6,7L73.1,252.3z"/>
		<path class="st3" d="M73.8,251.4c0,0,8.3,0.7,7.9-16.1c0,0-12.7,7.7-8.7,15.7L73.8,251.4z"/>
		<g>
			<path class="st5" d="M111.3,221.1c0,0,4.5,4.6,12.8-5.6c0,0-11.4-1.8-13.1,5L111.3,221.1z"/>
			<path class="st5" d="M110.7,220.4c0,0-6.4,0.3-5.7-12.8c0,0,9.6,6.4,6.3,12.5L110.7,220.4z"/>
			<path class="st5" d="M107.2,231.3c0,0,5.2,5.3,14.7-6.5c0,0-13.1-2-15.1,5.7L107.2,231.3z"/>
			<path class="st5" d="M106.6,230.6c0,0-7.4,0.4-6.5-14.7c0,0,11.1,7.3,7.3,14.4L106.6,230.6z"/>
			<path class="st5" d="M103.6,242.4c0,0,5.8,5.9,16.5-7.2c0,0-14.7-2.3-16.8,6.4L103.6,242.4z"/>
			<path class="st5" d="M103,241.5c0,0-8.3,0.4-7.3-16.4c0,0,12.4,8.2,8.1,16.1L103,241.5z"/>
			<path class="st5" d="M100.6,255.1c0,0,6.3,5.4,15.8-8.5c0,0-14.8-1.1-16.3,7.7L100.6,255.1z"/>
			<path class="st5" d="M99.9,254.3c0,0-8.2,1.1-8.6-15.8c0,0,13,7.2,9.4,15.4L99.9,254.3z"/>
			<path class="st6" d="M96.5,273.3c0,0,2.3-24.9,17.9-60.7"/>
			<path class="st5" d="M113.5,212.9c0,0-4.2-4.9,6.6-12.3c0,0,0.8,11.5-6,12.7L113.5,212.9z"/>
		</g>
		<path class="st6" d="M83.9,271.4c0,0,6.3-72.5,3.7-93.2"/>
		<path class="st4" d="M87.6,178.7c0,0,5.7-3-1.6-13.9c0,0-5.1,10.4,0.8,14L87.6,178.7z"/>
		<path class="st6" d="M78,270.2c0,0-3.4-24.8-20.4-59.9"/>
	</g>
	<g>
		<path class="st2" d="M440.5,318.7c0,0.6-0.5,1.1-1.1,1.1h-41.7c-0.6,0-1.1-0.5-1.1-1.1l-2.1-50.5c0-0.6,0.5-1.1,1.1-1.1h46
			c0.6,0,1.1,0.5,1.1,1.1L440.5,318.7z"/>
		<path class="st3" d="M391.5,223.8c0,0-4.3,4.8-13-5.1c0,0,11.3-2.2,13.3,4.4L391.5,223.8z"/>
		<path class="st3" d="M392,223.1c0,0,6.4,0.1,5.1-13c0,0-9.3,6.8-5.8,12.8L392,223.1z"/>
		<path class="st4" d="M418,192.2c0,0-5.9,2.6-9.8-10c0,0,11.2,2.6,10.3,9.5L418,192.2z"/>
		<path class="st4" d="M419.1,191.4c0,0,5.8,2.7,10.1-9.7c0,0-11.3,2.3-10.5,9.2L419.1,191.4z"/>
		<path class="st4" d="M417.9,202.8c0,0-6.3,2.7-10.4-10.6c0,0,12,2.8,10.9,10.1L417.9,202.8z"/>
		<path class="st4" d="M419,201.9c0,0,6.2,2.9,10.7-10.4c0,0-12,2.5-11.2,9.8L419,201.9z"/>
		<path class="st4" d="M417.7,214.8c0,0-7,3-11.5-11.8c0,0,13.2,3.1,12.1,11.2L417.7,214.8z"/>
		<path class="st4" d="M419,213.9c0,0,6.9,3.2,11.8-11.5c0,0-13.3,2.7-12.4,10.9L419,213.9z"/>
		<path class="st4" d="M417.7,227.5c0,0-7,3-11.5-11.8c0,0,13.3,3.1,12.1,11.2L417.7,227.5z"/>
		<path class="st4" d="M419,226.6c0,0,6.9,3.2,11.8-11.5c0,0-13.3,2.7-12.4,10.9L419,226.6z"/>
		<path class="st4" d="M416.6,237c0,0-5,2.2-8.3-8.5c0,0,9.5,2.2,8.7,8.1L416.6,237z"/>
		<path class="st4" d="M417.5,236.6c0,0,4.6,2.9,9.5-7c0,0-9.8,0.7-9.9,6.6L417.5,236.6z"/>
		<path class="st4" d="M416.9,244.7c0,0,3.8,2.4,7.8-5.8c0,0-8,0.6-8.1,5.4L416.9,244.7z"/>
		<path class="st4" d="M416.8,244.7c0,0-3.8,2.4-7.8-5.8c0,0,8,0.6,8.1,5.4L416.8,244.7z"/>
		<path class="st3" d="M396,233.9c0,0-5,5.5-15-5.8c0,0,13-2.6,15.3,5.1L396,233.9z"/>
		<path class="st3" d="M396.6,233.1c0,0,7.4,0.1,5.9-15c0,0-10.7,7.8-6.7,14.7L396.6,233.1z"/>
		<path class="st3" d="M400,244.8c0,0-5.6,6.1-16.8-6.5c0,0,14.6-2.9,17.1,5.7L400,244.8z"/>
		<path class="st3" d="M400.6,243.9c0,0,8.3,0.1,6.6-16.7c0,0-12,8.7-7.5,16.4L400.6,243.9z"/>
		<path class="st3" d="M403.5,257.3c0,0-6,5.7-16.2-7.8c0,0,14.7-1.7,16.6,7L403.5,257.3z"/>
		<path class="st3" d="M404.2,256.5c0,0,8.3,0.7,7.9-16.1c0,0-12.7,7.7-8.7,15.7L404.2,256.5z"/>
		<g>
			<path class="st5" d="M441.7,226.1c0,0,4.5,4.6,12.8-5.6c0,0-11.4-1.8-13.1,5L441.7,226.1z"/>
			<path class="st5" d="M441.2,225.5c0,0-6.4,0.3-5.7-12.8c0,0,9.6,6.4,6.3,12.5L441.2,225.5z"/>
			<path class="st5" d="M437.6,236.4c0,0,5.2,5.3,14.7-6.5c0,0-13.1-2-15.1,5.7L437.6,236.4z"/>
			<path class="st5" d="M437,235.7c0,0-7.4,0.4-6.5-14.7c0,0,11.1,7.3,7.3,14.4L437,235.7z"/>
			<path class="st5" d="M434.1,247.5c0,0,5.8,5.9,16.5-7.2c0,0-14.7-2.3-16.8,6.4L434.1,247.5z"/>
			<path class="st5" d="M433.4,246.6c0,0-8.3,0.4-7.3-16.4c0,0,12.4,8.2,8.1,16.1L433.4,246.6z"/>
			<path class="st5" d="M431.1,260.2c0,0,6.3,5.4,15.8-8.5c0,0-14.8-1.1-16.3,7.7L431.1,260.2z"/>
			<path class="st5" d="M430.4,259.4c0,0-8.2,1.1-8.6-15.8c0,0,13,7.2,9.4,15.4L430.4,259.4z"/>
			<path class="st6" d="M426.9,278.4c0,0,2.3-24.9,17.9-60.7"/>
			<path class="st5" d="M444,218c0,0-4.2-4.9,6.6-12.3c0,0,0.8,11.5-6,12.7L444,218z"/>
		</g>
		<path class="st6" d="M414.3,276.4c0,0,6.3-72.5,3.7-93.2"/>
		<path class="st4" d="M418,183.8c0,0,5.7-3-1.6-13.9c0,0-5.1,10.4,0.8,14L418,183.8z"/>
		<path class="st6" d="M408.5,275.3c0,0-3.4-24.8-20.4-59.9"/>
	</g>
	<g>
		<g>
			<path class="st5" d="M388.3,306.8c0,3.8-3.2,6.9-7.1,6.9H126c-3.9,0-7.1-3.1-7.1-6.9V132.6c0-3.8,3.2-6.9,7.1-6.9h255.3
				c3.9,0,7.1,3.1,7.1,6.9V306.8z"/>
			<rect x="128.2" y="134.4" class="st4" width="250.3" height="153.9"/>
		</g>
		<g class="st7">
			<polygon class="st3" points="361.3,134.4 331.7,134.4 166.5,288.3 199.3,288.3 			"/>
			<path class="st3" d="M319.4,134.4h-40.3c0,0-150.8,135-151,135v18.8h23L319.4,134.4z"/>
		</g>
		<path class="st3" d="M400.4,311.6c0,2.2-1.5,4-3.4,4H110.2c-1.9,0-3.4-1.8-3.4-4v-9.4c0-2.2,1.5-4,3.4-4H397c1.9,0,3.4,1.8,3.4,4
			V311.6z"/>
	</g>
	<g>
		<g>
			
				<rect x="308.3" y="236.5" transform="matrix(0.544 -0.8391 0.8391 0.544 -72.8681 382.3394)" class="st3" width="13.9" height="43.3"/>
			<path class="st5" d="M284.2,160.3c29.9,19.4,38.4,59.4,19.1,89.3c-19.4,29.9-59.4,38.4-89.3,19.1c-29.9-19.4-38.4-59.4-19-89.3
				C214.3,149.4,254.3,140.9,284.2,160.3z"/>
			<path class="st8" d="M308.1,269.4l83.3,54c5.8,3.7,13.5,2.1,17.2-3.7l1-1.5c3.7-5.8,2.1-13.5-3.7-17.2l-83.3-54L308.1,269.4z"/>
			<path class="st3" d="M276.4,172.2c23.3,15.1,30,46.3,14.8,69.6c-15.1,23.3-46.3,30-69.6,14.8c-23.3-15.1-30-46.3-14.8-69.6
				C222,163.8,253.1,157.1,276.4,172.2z"/>
		</g>
		<g>
			<g>
				<g>
					<path class="st8" d="M287.8,218c-0.1,0.4-0.3,0.9-0.5,1.3c-0.7,1.7-1.7,3.1-2.9,4.3c-1.2,1.2-2.7,2.2-4.3,2.9
						c-1.6,0.7-3.3,1-5.2,1c-1.8,0-3.5-0.3-5.2-1c-1.6-0.7-3-1.7-4.3-2.9c-0.3-0.3-0.6-0.7-0.9-1.1c-1,0.8-2.2,1.5-3.2,2.3
						c-0.1,0.1-0.1,0.1-0.2,0.2c0.4,0.5,0.8,1,1.3,1.4c1.6,1.6,3.5,2.8,5.6,3.7c2.1,0.9,4.4,1.3,6.9,1.3c2.4,0,4.7-0.4,6.9-1.3
						c2.1-0.9,4-2.1,5.6-3.7c1.6-1.6,2.8-3.4,3.8-5.6c0.2-0.5,0.4-1.1,0.6-1.7C290.5,218.8,289.2,218.3,287.8,218z"/>
					<path class="st4" d="M291.2,207.1c-0.9-2.1-2.2-4-3.8-5.6c-1.6-1.6-3.5-2.8-5.6-3.8c-2.1-0.9-4.4-1.4-6.8-1.4
						c-2.4,0-4.7,0.5-6.8,1.4c0,0-0.1,0-0.1,0l1.6,3.5c1.5-0.5,3.6-1,5.3-1c2,0,3.8,0.4,5.4,1.1c1.7,0.7,3.1,1.7,4.3,2.9
						c1.2,1.2,2.1,2.7,2.8,4.3c0.7,1.6,1,3.4,1,5.2c0,1.2-0.5,3.4-0.7,4.5l4,1.2c0.6-1.8,0.9-3.7,0.9-5.8
						C292.6,211.5,292.2,209.2,291.2,207.1z"/>
					<path class="st5" d="M261.9,225.7c1.1-0.9,2.2-1.7,3.3-2.5c-1.1-1.1-1.9-2.4-2.5-3.9c-0.7-1.7-1.1-3.4-1.1-5.4
						c0-1.8,0.3-3.6,1-5.2c0.7-1.7,1.6-3.1,2.8-4.3c1.2-1.2,2.6-2.2,4.3-2.9c0.1-0.1,0.3-0.1,0.4-0.2c-0.6-1.2-1.1-2.4-1.5-3.6
						c-0.1,0-0.2,0.1-0.3,0.1c-2.1,0.9-4,2.2-5.6,3.8c-1.6,1.6-2.9,3.5-3.8,5.6c-0.9,2.1-1.4,4.4-1.4,6.8c0,2.5,0.5,4.8,1.4,7
						C259.6,222.7,260.6,224.3,261.9,225.7z"/>
				</g>
				<polygon class="st5" points="269.1,203 272.4,198.1 266.8,196.2 				"/>
				<polygon class="st4" points="286.8,216.4 288.9,221.9 293.7,218.4 				"/>
				<polygon class="st8" points="266.6,222.6 261,221.1 261,227 				"/>
			</g>
			<g>
				<g>
					<polygon class="st8" points="240.7,220.3 236.5,220.3 236.5,230 254.5,230 254.5,226.2 240.7,226.2 					"/>
					<polygon class="st4" points="240.7,205.8 236.5,205.8 236.5,220.6 240.7,220.6 240.7,213.5 254.1,213.5 254.1,209.6 
						240.7,209.6 					"/>
					<polygon class="st5" points="236.5,196.4 236.5,206.1 240.7,206.1 240.7,200.2 254.5,200.2 254.5,196.4 					"/>
				</g>
				<polygon class="st4" points="242.1,207.2 238.6,202.5 235,207.2 				"/>
				<polygon class="st8" points="241.9,221.9 238.3,217.2 234.7,221.9 				"/>
			</g>
			<g>
				<path class="st8" d="M223.5,225.5C223.5,225.5,223.5,225.5,223.5,225.5c-0.8,0.4-1.6,0.5-2.5,0.5c-0.9,0-1.7-0.2-2.5-0.5
					c-0.8-0.3-1.5-0.8-2.1-1.3c-0.6-0.6-1.1-1.2-1.4-2c-0.3-0.8-0.5-1.6-0.5-2.6l-4.2,0.9c0.2,1.3,0.6,2.6,1.2,3.7
					c0.6,1.2,1.3,2.2,2.3,3c0.9,0.8,2,1.5,3.1,2c1.2,0.5,2.5,0.7,3.8,0.7c1.5,0,2.8-0.2,4.1-0.7C224.5,228,224,226.8,223.5,225.5z"
					/>
				<path class="st5" d="M214,209c0.7,0.7,1.4,1.2,2.3,1.7c0.9,0.5,1.8,0.9,2.8,1.4l2.3,1c0.5,0.2,1.1,0.5,1.6,0.7
					c0.7-1.2,1.4-2.4,2.1-3.6c-0.6-0.3-1.3-0.6-2-0.9l-2.4-0.9c-0.5-0.2-1.1-0.5-1.6-0.7c-0.6-0.3-1-0.6-1.5-1
					c-0.4-0.4-0.8-0.8-1.1-1.3c-0.3-0.5-0.4-1.1-0.4-1.7c0-0.7,0.2-1.4,0.5-2c0.3-0.6,0.8-1.1,1.3-1.5c0.5-0.4,1.1-0.7,1.8-1
					c0.7-0.2,1.3-0.3,2-0.3c1.3,0,2.3,0.3,3.2,0.8c0.8,0.5,1.6,1.3,2.2,2.4l3.3-2c-0.9-1.6-2.1-2.9-3.6-3.8c-1.5-0.9-3.2-1.3-5-1.3
					c-1.3,0-2.5,0.2-3.7,0.6c-1.2,0.4-2.2,1-3.2,1.7c-0.9,0.7-1.7,1.7-2.2,2.7c-0.6,1.1-0.8,2.3-0.8,3.7c0,1.2,0.2,2.2,0.6,3.1
					C212.8,207.6,213.4,208.4,214,209z"/>
				<path class="st4" d="M230.8,215.8c-0.4-1.1-1-2-1.7-2.8c-0.7-0.8-1.6-1.5-2.7-2.1c-0.9-0.5-1.8-0.9-2.7-1.3
					c-0.7,1.2-1.4,2.4-1.9,3.6c0.6,0.3,1.2,0.5,1.8,0.9c0.7,0.4,1.3,0.8,1.9,1.3c0.6,0.5,1,1.1,1.3,1.7c0.3,0.7,0.5,1.5,0.5,2.3
					c0,0.9-0.2,1.7-0.5,2.5c-0.3,0.8-0.7,1.5-1.3,2.1c-0.6,0.6-1.2,1.1-2,1.4c-0.1,0-0.2,0.1-0.3,0.1c0.2,1.3,0.5,2.6,0.8,3.9
					c0.3-0.1,0.6-0.2,0.8-0.3c1.3-0.5,2.4-1.2,3.4-2.2c1-0.9,1.7-2,2.3-3.3c0.5-1.3,0.8-2.7,0.8-4.2
					C231.5,218.1,231.2,216.9,230.8,215.8z"/>
				<polygon class="st4" points="225.6,208.9 219.8,209.9 222.2,215.2 				"/>
				<polygon class="st8" points="221.1,224.5 226.8,225.9 223.9,231 				"/>
			</g>
		</g>
	</g>
	<g>
		<path class="st9" d="M237.7,113.4c0,17.4-14.1,31.5-31.5,31.5c-17.4,0-31.5-14.1-31.5-31.5c0-17.4,14.1-31.5,31.5-31.5
			C223.6,81.9,237.7,96,237.7,113.4z"/>
		<g>
			<path class="st3" d="M206.2,113.4c0,0.4-14.6-13.3-14.6-13.3c3.6-4,8.8-6.5,14.6-6.5V113.4z"/>
			<path class="st0" d="M226,113.4c0,0-8.9,0-19.8,0V93.6C217.1,93.6,226,102.5,226,113.4z"/>
			<path class="st4" d="M186.4,113.4c0,0,8.9,0,19.8,0v19.8C195.3,133.2,186.4,124.4,186.4,113.4z"/>
			<path class="st2" d="M206.2,113.4h-19.8c0-5.1,2-9.8,5.2-13.3L206.2,113.4z"/>
			<g>
				<path class="st8" d="M206.2,113.4c0-0.4,14.6,13.3,14.6,13.3c-3.6,4-8.8,6.5-14.6,6.5V113.4z"/>
				<path class="st10" d="M206.2,113.4H226c0,5.1-2,9.8-5.2,13.3L206.2,113.4z"/>
			</g>
		</g>
	</g>
	<g>
		
			<ellipse transform="matrix(0.7071 -0.7071 0.7071 0.7071 -94.4403 145.283)" class="st9" cx="128.2" cy="186.6" rx="31.5" ry="31.5"/>
		<g>
			<path class="st3" d="M154.3,186.7c0,0-11.7,11.9-26.2,11.9c-14.5,0-26.2-11.9-26.2-11.9s11.7-12,26.2-12
				C142.6,174.7,154.3,186.7,154.3,186.7z"/>
			<path class="st4" d="M138.9,186.6c0,5.9-4.8,10.8-10.8,10.8c-5.9,0-10.8-4.8-10.8-10.8c0-5.9,4.8-10.8,10.8-10.8
				C134.1,175.9,138.9,180.7,138.9,186.6z"/>
			<path class="st5" d="M133.6,186.6c0,3-2.4,5.4-5.4,5.4c-3,0-5.4-2.4-5.4-5.4c0-3,2.4-5.4,5.4-5.4
				C131.1,181.2,133.6,183.7,133.6,186.6z"/>
		</g>
	</g>
	<g>
		<g>
			<path class="st9" d="M331.5,116.7c0,17.8-14.4,32.2-32.2,32.2c-17.8,0-32.2-14.4-32.2-32.2c0-17.8,14.4-32.2,32.2-32.2
				C317.1,84.6,331.5,99,331.5,116.7z"/>
		</g>
		<path class="st4" d="M320.1,111h-7.3l5-5.3l-8.4-7.9l-4.2,4.4V96h-11.6v7.3l-5.3-5l-7.9,8.4l4.4,4.2h-6.1v11.6h7.3l-5,5.3l8.4,7.9
			l4.2-4.4v6.1h11.6v-7.3l5.3,5l7.9-8.4l-4.4-4.2h6.1V111z M299.4,125.1c-4.6,0-8.3-3.7-8.3-8.3c0-4.6,3.7-8.3,8.3-8.3
			c4.6,0,8.3,3.7,8.3,8.3C307.7,121.4,304,125.1,299.4,125.1z"/>
	</g>
	<g>
		<g>
			<path class="st9" d="M396.5,187.3c0,17.5-14.2,31.6-31.6,31.6c-17.5,0-31.6-14.2-31.6-31.6c0-17.5,14.2-31.6,31.6-31.6
				C382.3,155.7,396.5,169.8,396.5,187.3z"/>
		</g>
		<g>
			<g>
				<g>
					<polygon class="st5" points="372.6,205.9 344.1,187.6 372.6,169.3 374.4,172.1 350.1,187.6 374.4,203.2 					"/>
				</g>
			</g>
			<path class="st0" d="M366.5,170.1c0,3.9,3.1,7,7,7c3.9,0,7-3.1,7-7c0-3.9-3.1-7-7-7C369.6,163,366.5,166.2,366.5,170.1z"/>
			<path class="st0" d="M340.3,187c0,4.5,3.7,8.2,8.2,8.2c4.5,0,8.2-3.7,8.2-8.2c0-4.5-3.7-8.2-8.2-8.2
				C344,178.8,340.3,182.4,340.3,187z"/>
			<path class="st0" d="M366.5,204.6c0,3.9,3.1,7,7,7c3.9,0,7-3.1,7-7c0-3.9-3.1-7-7-7C369.6,197.5,366.5,200.7,366.5,204.6z"/>
		</g>
	</g>
	<g>
		<g>
			<rect x="130.5" y="91.3" class="st2" width="8.3" height="52.6"/>
			<rect x="88.8" y="113.2" class="st8" width="8.3" height="30.8"/>
			<rect x="116.6" y="98.5" class="st4" width="8.3" height="45.5"/>
			<rect x="102.7" y="104.9" class="st9" width="8.3" height="39"/>
			<rect x="74.9" y="119.1" class="st3" width="8.3" height="24.9"/>
		</g>
		<g>
			<line class="st11" x1="76.5" y1="111.1" x2="126.1" y2="83.8"/>
			<polygon class="st2" points="125.1,91 128.5,82.1 119.1,81.1 			"/>
		</g>
	</g>
	<g>
		<rect x="359.8" y="112.3" class="st3" width="103.6" height="25"/>
		<rect x="435.2" y="112.3" class="st5" width="28.2" height="25"/>
		<path class="st9" d="M455.4,124.1c1.8-2.2,1.6-5.4-0.6-7.2c-2.2-1.8-5.4-1.6-7.2,0.6c-1.6,1.8-1.6,4.5-0.3,6.3l-6.6,7.8l1.9,1.6
			l6.6-7.8C451.3,126.4,453.9,125.9,455.4,124.1z M449.4,123.2c-1.4-1.2-1.5-3.2-0.4-4.6c1.2-1.4,3.2-1.5,4.6-0.4
			c1.4,1.2,1.5,3.2,0.4,4.6C452.8,124.2,450.7,124.4,449.4,123.2z"/>
		<g>
			<g>
				<path class="st5" d="M371.7,132.5v-3.6c0.4,0.4,0.9,0.7,1.3,0.9c0.4,0.2,0.8,0.3,1.3,0.3c0.6,0,1-0.2,1.4-0.5
					c0.3-0.3,0.5-0.7,0.5-1.3c0-0.7-0.5-1.4-1.4-2.1c-0.3-0.2-0.4-0.4-0.6-0.5c-1.1-0.9-1.8-1.8-2.2-2.6c-0.4-0.8-0.6-1.6-0.6-2.6
					c0-1.5,0.4-2.7,1.3-3.6c0.8-0.9,1.9-1.4,3.3-1.4c0.5,0,1,0.1,1.4,0.2c0.5,0.1,1,0.4,1.5,0.6v3.1c-0.6-0.3-1.1-0.5-1.4-0.6
					c-0.3-0.1-0.6-0.2-0.9-0.2c-0.5,0-0.9,0.2-1.2,0.5c-0.3,0.3-0.5,0.7-0.5,1.2c0,0.4,0.1,0.9,0.4,1.2c0.2,0.4,0.8,0.9,1.7,1.7
					c1.2,1,1.9,1.8,2.2,2.5c0.3,0.7,0.5,1.5,0.5,2.4c0,1.6-0.4,2.8-1.3,3.7c-0.9,0.9-2.1,1.4-3.6,1.4c-0.6,0-1.1-0.1-1.6-0.2
					C372.5,133,372.1,132.8,371.7,132.5z"/>
				<path class="st5" d="M383.8,128.2L383.8,128.2c0,1,0.2,1.6,0.5,2.1c0.3,0.5,0.7,0.7,1.3,0.7c0.4,0,0.7-0.1,0.9-0.3
					c0.3-0.2,0.5-0.6,0.6-1h2.8c-0.3,1.2-0.8,2.1-1.6,2.7c-0.8,0.7-1.8,1-2.9,1c-1.4,0-2.6-0.5-3.4-1.6c-0.9-1.1-1.3-2.5-1.3-4.4
					c0-1.9,0.4-3.3,1.3-4.4c0.9-1.1,2-1.6,3.4-1.6c1.5,0,2.7,0.5,3.5,1.6c0.8,1.1,1.2,2.6,1.2,4.7v0.6H383.8z M387.2,126.3
					c0-0.8-0.2-1.5-0.5-1.9c-0.3-0.4-0.7-0.6-1.3-0.6c-0.6,0-1,0.2-1.3,0.6c-0.3,0.4-0.4,1-0.4,1.9L387.2,126.3z"/>
				<path class="st5" d="M400.3,133.1h-3v-1.7c-0.3,0.6-0.7,1.1-1.2,1.4c-0.4,0.3-0.9,0.5-1.5,0.5c-1.1,0-2-0.5-2.5-1.5
					c-0.6-1-0.9-2.5-0.9-4.5c0-1.9,0.3-3.4,0.9-4.4c0.6-1,1.5-1.6,2.5-1.6c0.5,0,1,0.2,1.4,0.5c0.4,0.3,0.8,0.8,1.2,1.4v-1.8h3
					V133.1z M397.3,127.1c0-1.1-0.1-1.8-0.4-2.4c-0.2-0.5-0.6-0.8-1.2-0.8c-0.5,0-0.8,0.2-1,0.7c-0.2,0.5-0.3,1.3-0.3,2.4
					c0,1.1,0.1,1.9,0.3,2.5c0.2,0.5,0.6,0.8,1.1,0.8c0.5,0,0.9-0.3,1.1-0.8C397.2,129.1,397.3,128.3,397.3,127.1z"/>
				<path class="st5" d="M402.7,133.1v-11.6h3v2.1c0.3-0.8,0.6-1.3,1-1.7c0.4-0.4,1-0.6,1.6-0.6v3.1h-0.2c-0.8,0-1.4,0.2-1.7,0.6
					c-0.3,0.4-0.5,1.3-0.5,2.7v5.5H402.7z"/>
				<path class="st5" d="M415.7,124.8c-0.3-0.2-0.5-0.3-0.7-0.4c-0.2-0.1-0.5-0.1-0.7-0.1c-0.6,0-1.1,0.3-1.5,0.8
					c-0.4,0.5-0.5,1.3-0.5,2.2c0,1,0.2,1.7,0.6,2.2c0.4,0.5,0.9,0.8,1.6,0.8c0.3,0,0.5,0,0.7-0.1c0.2-0.1,0.4-0.3,0.6-0.5v3.1
					c-0.3,0.2-0.7,0.4-1,0.5c-0.4,0.1-0.8,0.2-1.2,0.2c-1.4,0-2.4-0.5-3.2-1.6c-0.8-1.1-1.2-2.6-1.2-4.4c0-1.8,0.4-3.3,1.2-4.4
					c0.8-1.1,1.9-1.6,3.2-1.6c0.4,0,0.8,0,1.1,0.1c0.4,0.1,0.7,0.2,1.1,0.3V124.8z"/>
				<path class="st5" d="M422.7,133.1v-7c0-0.7-0.1-1.1-0.2-1.4c-0.2-0.2-0.4-0.4-0.8-0.4c-0.4,0-0.7,0.1-0.9,0.4
					c-0.2,0.3-0.3,0.8-0.3,1.4v6.9h-3.2v-18.4h3.2v8.1c0.4-0.5,0.9-0.9,1.4-1.2c0.5-0.2,1-0.4,1.6-0.4c0.9,0,1.5,0.3,1.9,0.8
					c0.4,0.5,0.5,1.5,0.5,3v7.9H422.7z"/>
			</g>
		</g>
	</g>
</g>
</svg>
